<svg width="73" height="73" viewBox="0 0 73 73" fill="none" xmlns="http://www.w3.org/2000/svg">
<path d="M35.9525 3.6499C17.3156 3.6499 2.19 18.7755 2.19 37.4124C2.19 56.0493 17.3156 71.1749 35.9525 71.1749C54.5894 71.1749 69.715 56.0493 69.715 37.4124C69.715 18.7755 54.5894 3.6499 35.9525 3.6499ZM35.9525 36.4657C36.4756 36.4657 36.8992 36.8893 36.8992 37.4124C36.8992 37.9355 36.4756 38.3591 35.9525 38.3591C35.4294 38.3591 35.0058 37.9355 35.0058 37.4124C35.0058 36.8893 35.4294 36.4657 35.9525 36.4657Z" fill="black"/>
<path d="M36.5 24.2097C29.7184 24.2097 24.2098 29.7184 24.2098 36.5C24.2098 43.2815 29.7184 48.7902 36.5 48.7902C43.2816 48.7902 48.7902 43.2815 48.7902 36.5C48.7902 29.7184 43.2816 24.2097 36.5 24.2097ZM36.5 35.6901C36.9479 35.6901 37.3099 36.0521 37.3099 36.5C37.3099 36.9478 36.9479 37.3098 36.5 37.3098C36.0521 37.3098 35.6902 36.9478 35.6902 36.5C35.6902 36.0521 36.0521 35.6901 36.5 35.6901Z" fill="#333333"/>
<path d="M36.5 3.0625C54.961 3.0625 69.9374 18.0389 69.9374 36.4999C69.9374 54.961 54.961 69.9373 36.5 69.9373C18.0389 69.9373 3.06256 54.961 3.06256 36.4999C3.06256 18.0389 18.0389 3.0625 36.5 3.0625Z" stroke="black" stroke-width="3.562"/>
<path d="M53.5752 36.5C53.5752 45.9263 45.9264 53.5808 36.5 53.5808V69.6123C54.7771 69.6123 69.6124 54.7771 69.6124 36.5H53.5752Z" fill="black"/>
<path d="M19.4248 36.5C19.4248 27.0737 27.0736 19.4192 36.5 19.4192V3.3877C18.2229 3.3877 3.38763 18.2229 3.38763 36.5H19.4248Z" fill="black"/>
<path d="M36.5 24.2156C43.283 24.2156 48.7845 29.7171 48.7845 36.5001C48.7845 43.2831 43.283 48.785 36.5 48.785C29.717 48.785 24.2151 43.2831 24.2151 36.5001C24.2151 29.7171 29.717 24.2156 36.5 24.2156Z" stroke="black" stroke-width="3"/>
<path d="M43.4282 29.5717C39.6044 25.7479 33.3957 25.7479 29.5718 29.5717C25.748 33.3956 25.748 39.6043 29.5718 43.4282C33.3957 47.252 39.6044 47.252 43.4282 43.4282C47.2521 39.6043 47.2521 33.3956 43.4282 29.5717ZM37.1694 35.8305C37.5394 36.2004 37.5394 36.7995 37.1694 37.1694C36.7995 37.5393 36.2005 37.5393 35.8306 37.1694C35.4607 36.7995 35.4607 36.2004 35.8306 35.8305C36.2005 35.4606 36.7995 35.4606 37.1694 35.8305Z" fill="url(#paint0_radial_7_2)"/>
<path opacity="0.742574" d="M44.5211 28.4789C43.2323 27.1902 41.7094 26.2792 40.0891 25.7407L39.8633 26.4182C41.3808 26.9227 42.806 27.7801 44.0129 28.9871C45.4832 30.4573 46.4322 32.2509 46.86 34.1409L47.5577 33.9836C47.1011 31.966 46.0908 30.0487 44.5211 28.4789Z" fill="white"/>
<path opacity="0.742574" d="M26.027 34.7216L25.3173 34.6006C24.7265 38.0997 25.7806 41.8227 28.4789 44.5211C31.1701 47.2122 34.8803 48.2671 38.3712 47.6868L38.2542 46.981C34.9829 47.5256 31.5087 46.5346 28.9871 44.013C26.459 41.4849 25.4733 38.0001 26.027 34.7216Z" fill="white"/>
<circle cx="36.5" cy="36.4999" r="0.9125" fill="black"/>
<circle cx="26.3402" cy="10.2852" r="2.00687" fill="white"/>
<circle cx="45.4055" cy="10.2852" r="2.00687" fill="white"/>
<path d="M25.2114 16.8076C33.5383 22.214 38.2075 21.9515 46.5344 16.8076" stroke="white" stroke-width="6"/>
<defs>
<radialGradient id="paint0_radial_7_2" cx="0" cy="0" r="1" gradientUnits="userSpaceOnUse" gradientTransform="translate(36.5 36.5) rotate(90) scale(28.1482 9.79797)">
<stop stop-color="#F6CADC"/>
<stop offset="1" stop-color="#E1E1E1"/>
</radialGradient>
</defs>
</svg>
